<mxfile host="Electron" agent="Mozilla/5.0 (Windows NT 10.0; Win64; x64) AppleWebKit/537.36 (KHTML, like Gecko) draw.io/24.7.8 Chrome/128.0.6613.36 Electron/32.0.1 Safari/537.36" version="24.7.8" pages="3">
  <diagram id="R2lEEEUBdFMjLlhIrx00" name="TP1-a)">
    <mxGraphModel dx="1560" dy="967" grid="1" gridSize="10" guides="1" tooltips="1" connect="1" arrows="1" fold="1" page="1" pageScale="1" pageWidth="850" pageHeight="1100" math="0" shadow="0" extFonts="Permanent Marker^https://fonts.googleapis.com/css?family=Permanent+Marker">
      <root>
        <mxCell id="0" />
        <mxCell id="1" parent="0" />
        <mxCell id="77fqZ6DmJngDoGiyn-_H-4" value="&lt;h1&gt;Coches&lt;/h1&gt;" style="rounded=0;whiteSpace=wrap;html=1;" vertex="1" parent="1">
          <mxGeometry x="520" y="240" width="120" height="80" as="geometry" />
        </mxCell>
        <mxCell id="77fqZ6DmJngDoGiyn-_H-5" value="&lt;h1&gt;Clientes&lt;/h1&gt;" style="rounded=0;whiteSpace=wrap;html=1;" vertex="1" parent="1">
          <mxGeometry x="520" y="560" width="120" height="80" as="geometry" />
        </mxCell>
        <mxCell id="77fqZ6DmJngDoGiyn-_H-6" value="" style="rhombus;whiteSpace=wrap;html=1;" vertex="1" parent="1">
          <mxGeometry x="540" y="400" width="80" height="80" as="geometry" />
        </mxCell>
        <mxCell id="77fqZ6DmJngDoGiyn-_H-7" value="Nombre" style="ellipse;whiteSpace=wrap;html=1;" vertex="1" parent="1">
          <mxGeometry x="540" y="760" width="80" height="40" as="geometry" />
        </mxCell>
        <mxCell id="77fqZ6DmJngDoGiyn-_H-8" value="D.N.I." style="ellipse;whiteSpace=wrap;html=1;" vertex="1" parent="1">
          <mxGeometry x="640" y="720" width="80" height="40" as="geometry" />
        </mxCell>
        <mxCell id="77fqZ6DmJngDoGiyn-_H-9" value="Color" style="ellipse;whiteSpace=wrap;html=1;" vertex="1" parent="1">
          <mxGeometry x="540" y="40" width="80" height="40" as="geometry" />
        </mxCell>
        <mxCell id="77fqZ6DmJngDoGiyn-_H-10" value="Modelo" style="ellipse;whiteSpace=wrap;html=1;" vertex="1" parent="1">
          <mxGeometry x="440" y="120" width="80" height="40" as="geometry" />
        </mxCell>
        <mxCell id="77fqZ6DmJngDoGiyn-_H-11" value="Patente" style="ellipse;whiteSpace=wrap;html=1;" vertex="1" parent="1">
          <mxGeometry x="640" y="120" width="80" height="40" as="geometry" />
        </mxCell>
        <mxCell id="77fqZ6DmJngDoGiyn-_H-12" value="&lt;h1&gt;(1,N)&lt;/h1&gt;" style="text;html=1;align=center;verticalAlign=middle;resizable=0;points=[];autosize=1;strokeColor=none;fillColor=none;" vertex="1" parent="1">
          <mxGeometry x="635" y="395" width="80" height="70" as="geometry" />
        </mxCell>
        <mxCell id="77fqZ6DmJngDoGiyn-_H-13" value="&lt;h1&gt;(1,1)&lt;/h1&gt;" style="text;html=1;align=center;verticalAlign=middle;resizable=0;points=[];autosize=1;strokeColor=none;fillColor=none;" vertex="1" parent="1">
          <mxGeometry x="650" y="245" width="70" height="70" as="geometry" />
        </mxCell>
        <mxCell id="77fqZ6DmJngDoGiyn-_H-14" value="&lt;h1&gt;(1,N)&lt;/h1&gt;" style="text;html=1;align=center;verticalAlign=middle;resizable=0;points=[];autosize=1;strokeColor=none;fillColor=none;" vertex="1" parent="1">
          <mxGeometry x="655" y="565" width="80" height="70" as="geometry" />
        </mxCell>
        <mxCell id="77fqZ6DmJngDoGiyn-_H-15" value="Primer nombre" style="ellipse;whiteSpace=wrap;html=1;" vertex="1" parent="1">
          <mxGeometry x="480" y="850" width="80" height="40" as="geometry" />
        </mxCell>
        <mxCell id="77fqZ6DmJngDoGiyn-_H-16" value="Apellido" style="ellipse;whiteSpace=wrap;html=1;" vertex="1" parent="1">
          <mxGeometry x="600" y="850" width="80" height="40" as="geometry" />
        </mxCell>
        <mxCell id="77fqZ6DmJngDoGiyn-_H-17" value="" style="group" vertex="1" connectable="0" parent="1">
          <mxGeometry x="440" y="720" width="80" height="40" as="geometry" />
        </mxCell>
        <mxCell id="77fqZ6DmJngDoGiyn-_H-18" value="" style="ellipse;whiteSpace=wrap;html=1;" vertex="1" parent="77fqZ6DmJngDoGiyn-_H-17">
          <mxGeometry width="80" height="40" as="geometry" />
        </mxCell>
        <mxCell id="77fqZ6DmJngDoGiyn-_H-19" value="NÃºmero de telefono" style="ellipse;whiteSpace=wrap;html=1;" vertex="1" parent="77fqZ6DmJngDoGiyn-_H-17">
          <mxGeometry x="5" y="5" width="70" height="30" as="geometry" />
        </mxCell>
        <mxCell id="77fqZ6DmJngDoGiyn-_H-20" value="" style="endArrow=none;html=1;rounded=0;exitX=0.5;exitY=0;exitDx=0;exitDy=0;entryX=0;entryY=1;entryDx=0;entryDy=0;" edge="1" parent="1" source="77fqZ6DmJngDoGiyn-_H-15" target="77fqZ6DmJngDoGiyn-_H-7">
          <mxGeometry width="50" height="50" relative="1" as="geometry">
            <mxPoint x="570" y="830" as="sourcePoint" />
            <mxPoint x="620" y="780" as="targetPoint" />
          </mxGeometry>
        </mxCell>
        <mxCell id="77fqZ6DmJngDoGiyn-_H-21" value="" style="endArrow=none;html=1;rounded=0;exitX=0.5;exitY=0;exitDx=0;exitDy=0;entryX=1;entryY=1;entryDx=0;entryDy=0;" edge="1" parent="1" source="77fqZ6DmJngDoGiyn-_H-16" target="77fqZ6DmJngDoGiyn-_H-7">
          <mxGeometry width="50" height="50" relative="1" as="geometry">
            <mxPoint x="590" y="850" as="sourcePoint" />
            <mxPoint x="640" y="800" as="targetPoint" />
          </mxGeometry>
        </mxCell>
        <mxCell id="77fqZ6DmJngDoGiyn-_H-22" value="" style="endArrow=none;html=1;rounded=0;entryX=0.5;entryY=1;entryDx=0;entryDy=0;exitX=0.5;exitY=0;exitDx=0;exitDy=0;" edge="1" parent="1" source="77fqZ6DmJngDoGiyn-_H-7" target="77fqZ6DmJngDoGiyn-_H-5">
          <mxGeometry width="50" height="50" relative="1" as="geometry">
            <mxPoint x="600" y="860" as="sourcePoint" />
            <mxPoint x="650" y="810" as="targetPoint" />
          </mxGeometry>
        </mxCell>
        <mxCell id="77fqZ6DmJngDoGiyn-_H-23" value="" style="endArrow=none;html=1;rounded=0;entryX=0.25;entryY=1;entryDx=0;entryDy=0;" edge="1" parent="1" target="77fqZ6DmJngDoGiyn-_H-5">
          <mxGeometry width="50" height="50" relative="1" as="geometry">
            <mxPoint x="480" y="720" as="sourcePoint" />
            <mxPoint x="530" y="670" as="targetPoint" />
          </mxGeometry>
        </mxCell>
        <mxCell id="77fqZ6DmJngDoGiyn-_H-24" value="" style="endArrow=none;html=1;rounded=0;exitX=0.75;exitY=1;exitDx=0;exitDy=0;entryX=0.5;entryY=0;entryDx=0;entryDy=0;" edge="1" parent="1" source="77fqZ6DmJngDoGiyn-_H-5" target="77fqZ6DmJngDoGiyn-_H-8">
          <mxGeometry width="50" height="50" relative="1" as="geometry">
            <mxPoint x="620" y="880" as="sourcePoint" />
            <mxPoint x="670" y="830" as="targetPoint" />
          </mxGeometry>
        </mxCell>
        <mxCell id="77fqZ6DmJngDoGiyn-_H-25" value="" style="endArrow=none;html=1;rounded=0;exitX=0.5;exitY=0;exitDx=0;exitDy=0;entryX=0.5;entryY=1;entryDx=0;entryDy=0;" edge="1" parent="1" source="77fqZ6DmJngDoGiyn-_H-5" target="77fqZ6DmJngDoGiyn-_H-6">
          <mxGeometry width="50" height="50" relative="1" as="geometry">
            <mxPoint x="530" y="520" as="sourcePoint" />
            <mxPoint x="580" y="480" as="targetPoint" />
          </mxGeometry>
        </mxCell>
        <mxCell id="77fqZ6DmJngDoGiyn-_H-26" value="" style="endArrow=none;html=1;rounded=0;entryX=0.5;entryY=1;entryDx=0;entryDy=0;exitX=0.5;exitY=0;exitDx=0;exitDy=0;" edge="1" parent="1" source="77fqZ6DmJngDoGiyn-_H-6" target="77fqZ6DmJngDoGiyn-_H-4">
          <mxGeometry width="50" height="50" relative="1" as="geometry">
            <mxPoint x="580" y="400" as="sourcePoint" />
            <mxPoint x="580" y="340" as="targetPoint" />
          </mxGeometry>
        </mxCell>
        <mxCell id="77fqZ6DmJngDoGiyn-_H-27" value="" style="endArrow=none;html=1;rounded=0;entryX=0.5;entryY=1;entryDx=0;entryDy=0;exitX=0.5;exitY=0;exitDx=0;exitDy=0;" edge="1" parent="1" source="77fqZ6DmJngDoGiyn-_H-4" target="77fqZ6DmJngDoGiyn-_H-9">
          <mxGeometry width="50" height="50" relative="1" as="geometry">
            <mxPoint x="579.5" y="230" as="sourcePoint" />
            <mxPoint x="579.5" y="150" as="targetPoint" />
          </mxGeometry>
        </mxCell>
        <mxCell id="77fqZ6DmJngDoGiyn-_H-28" value="" style="endArrow=none;html=1;rounded=0;entryX=0.5;entryY=1;entryDx=0;entryDy=0;exitX=0.25;exitY=0;exitDx=0;exitDy=0;" edge="1" parent="1" source="77fqZ6DmJngDoGiyn-_H-4" target="77fqZ6DmJngDoGiyn-_H-10">
          <mxGeometry width="50" height="50" relative="1" as="geometry">
            <mxPoint x="600" y="420" as="sourcePoint" />
            <mxPoint x="600" y="340" as="targetPoint" />
          </mxGeometry>
        </mxCell>
        <mxCell id="77fqZ6DmJngDoGiyn-_H-29" value="" style="endArrow=none;html=1;rounded=0;entryX=0.5;entryY=1;entryDx=0;entryDy=0;exitX=0.75;exitY=0;exitDx=0;exitDy=0;" edge="1" parent="1" source="77fqZ6DmJngDoGiyn-_H-4" target="77fqZ6DmJngDoGiyn-_H-11">
          <mxGeometry width="50" height="50" relative="1" as="geometry">
            <mxPoint x="610" y="430" as="sourcePoint" />
            <mxPoint x="610" y="350" as="targetPoint" />
          </mxGeometry>
        </mxCell>
        <mxCell id="77fqZ6DmJngDoGiyn-_H-30" value="" style="endArrow=none;html=1;rounded=0;entryX=1;entryY=0.5;entryDx=0;entryDy=0;exitX=0;exitY=0.5;exitDx=0;exitDy=0;" edge="1" parent="1" source="77fqZ6DmJngDoGiyn-_H-4">
          <mxGeometry width="50" height="50" relative="1" as="geometry">
            <mxPoint x="450" y="360" as="sourcePoint" />
            <mxPoint x="440" y="280" as="targetPoint" />
          </mxGeometry>
        </mxCell>
        <mxCell id="77fqZ6DmJngDoGiyn-_H-32" value="" style="rhombus;whiteSpace=wrap;html=1;" vertex="1" parent="1">
          <mxGeometry x="360" y="240" width="80" height="80" as="geometry" />
        </mxCell>
        <mxCell id="77fqZ6DmJngDoGiyn-_H-33" value="" style="endArrow=none;html=1;rounded=0;entryX=1;entryY=0.5;entryDx=0;entryDy=0;exitX=0;exitY=0.5;exitDx=0;exitDy=0;" edge="1" parent="1">
          <mxGeometry width="50" height="50" relative="1" as="geometry">
            <mxPoint x="360" y="279.5" as="sourcePoint" />
            <mxPoint x="280" y="279.5" as="targetPoint" />
          </mxGeometry>
        </mxCell>
        <mxCell id="77fqZ6DmJngDoGiyn-_H-34" value="&lt;h1&gt;Accidentes&lt;/h1&gt;" style="rounded=0;whiteSpace=wrap;html=1;" vertex="1" parent="1">
          <mxGeometry x="160" y="245" width="120" height="80" as="geometry" />
        </mxCell>
        <mxCell id="77fqZ6DmJngDoGiyn-_H-35" value="&lt;h1&gt;(N,1)&lt;/h1&gt;" style="text;html=1;align=center;verticalAlign=middle;resizable=0;points=[];autosize=1;strokeColor=none;fillColor=none;" vertex="1" parent="1">
          <mxGeometry x="180" y="330" width="80" height="70" as="geometry" />
        </mxCell>
        <mxCell id="77fqZ6DmJngDoGiyn-_H-36" value="&lt;h1&gt;(1,N)&lt;/h1&gt;" style="text;html=1;align=center;verticalAlign=middle;resizable=0;points=[];autosize=1;strokeColor=none;fillColor=none;" vertex="1" parent="1">
          <mxGeometry x="480" y="325" width="80" height="70" as="geometry" />
        </mxCell>
        <mxCell id="77fqZ6DmJngDoGiyn-_H-37" value="&lt;h1&gt;(1,N)&lt;/h1&gt;" style="text;html=1;align=center;verticalAlign=middle;resizable=0;points=[];autosize=1;strokeColor=none;fillColor=none;" vertex="1" parent="1">
          <mxGeometry x="360" y="340" width="80" height="70" as="geometry" />
        </mxCell>
        <mxCell id="77fqZ6DmJngDoGiyn-_H-38" value="Fecha" style="ellipse;whiteSpace=wrap;html=1;" vertex="1" parent="1">
          <mxGeometry x="180" y="40" width="80" height="40" as="geometry" />
        </mxCell>
        <mxCell id="77fqZ6DmJngDoGiyn-_H-39" value="Hora" style="ellipse;whiteSpace=wrap;html=1;" vertex="1" parent="1">
          <mxGeometry x="80" y="120" width="80" height="40" as="geometry" />
        </mxCell>
        <mxCell id="77fqZ6DmJngDoGiyn-_H-40" value="DescripciÃ³n" style="ellipse;whiteSpace=wrap;html=1;" vertex="1" parent="1">
          <mxGeometry x="280" y="120" width="80" height="40" as="geometry" />
        </mxCell>
        <mxCell id="77fqZ6DmJngDoGiyn-_H-41" value="" style="endArrow=none;html=1;rounded=0;entryX=0.5;entryY=1;entryDx=0;entryDy=0;exitX=0.25;exitY=0;exitDx=0;exitDy=0;" edge="1" parent="1" source="77fqZ6DmJngDoGiyn-_H-34" target="77fqZ6DmJngDoGiyn-_H-39">
          <mxGeometry width="50" height="50" relative="1" as="geometry">
            <mxPoint x="190" y="240" as="sourcePoint" />
            <mxPoint x="120" y="160" as="targetPoint" />
          </mxGeometry>
        </mxCell>
        <mxCell id="77fqZ6DmJngDoGiyn-_H-42" value="" style="endArrow=none;html=1;rounded=0;entryX=0.495;entryY=1;entryDx=0;entryDy=0;exitX=0.5;exitY=0;exitDx=0;exitDy=0;entryPerimeter=0;" edge="1" parent="1" target="77fqZ6DmJngDoGiyn-_H-38">
          <mxGeometry width="50" height="50" relative="1" as="geometry">
            <mxPoint x="219.57999999999998" y="245" as="sourcePoint" />
            <mxPoint x="219.57999999999998" y="85" as="targetPoint" />
          </mxGeometry>
        </mxCell>
        <mxCell id="77fqZ6DmJngDoGiyn-_H-43" value="" style="endArrow=none;html=1;rounded=0;entryX=0.5;entryY=1;entryDx=0;entryDy=0;exitX=0.75;exitY=0;exitDx=0;exitDy=0;" edge="1" parent="1" source="77fqZ6DmJngDoGiyn-_H-34" target="77fqZ6DmJngDoGiyn-_H-40">
          <mxGeometry width="50" height="50" relative="1" as="geometry">
            <mxPoint x="250" y="245" as="sourcePoint" />
            <mxPoint x="320" y="165" as="targetPoint" />
          </mxGeometry>
        </mxCell>
      </root>
    </mxGraphModel>
  </diagram>
  <diagram id="GYMOmHMEa97VYbVAAMPN" name="TP1-b)">
    <mxGraphModel dx="1560" dy="967" grid="1" gridSize="10" guides="1" tooltips="1" connect="1" arrows="1" fold="1" page="1" pageScale="1" pageWidth="850" pageHeight="1100" math="0" shadow="0">
      <root>
        <mxCell id="0" />
        <mxCell id="1" parent="0" />
        <mxCell id="Be3EVX6OcVUmw23MF_M5-1" value="&lt;h1&gt;Medico&lt;/h1&gt;" style="rounded=0;whiteSpace=wrap;html=1;" vertex="1" parent="1">
          <mxGeometry x="560" y="290" width="120" height="80" as="geometry" />
        </mxCell>
        <mxCell id="Be3EVX6OcVUmw23MF_M5-2" value="&lt;h1&gt;Paciente&lt;/h1&gt;" style="rounded=0;whiteSpace=wrap;html=1;" vertex="1" parent="1">
          <mxGeometry x="200" y="610" width="120" height="80" as="geometry" />
        </mxCell>
        <mxCell id="Be3EVX6OcVUmw23MF_M5-3" value="" style="rhombus;whiteSpace=wrap;html=1;" vertex="1" parent="1">
          <mxGeometry x="220" y="450" width="80" height="80" as="geometry" />
        </mxCell>
        <mxCell id="Be3EVX6OcVUmw23MF_M5-4" value="Nombre" style="ellipse;whiteSpace=wrap;html=1;" vertex="1" parent="1">
          <mxGeometry x="220" y="810" width="80" height="40" as="geometry" />
        </mxCell>
        <mxCell id="Be3EVX6OcVUmw23MF_M5-5" value="D.N.I." style="ellipse;whiteSpace=wrap;html=1;" vertex="1" parent="1">
          <mxGeometry x="320" y="770" width="80" height="40" as="geometry" />
        </mxCell>
        <mxCell id="Be3EVX6OcVUmw23MF_M5-6" value="Nombre" style="ellipse;whiteSpace=wrap;html=1;" vertex="1" parent="1">
          <mxGeometry x="580" y="130" width="80" height="40" as="geometry" />
        </mxCell>
        <mxCell id="Be3EVX6OcVUmw23MF_M5-7" value="Nro&lt;div&gt;Licencia&lt;/div&gt;" style="ellipse;whiteSpace=wrap;html=1;" vertex="1" parent="1">
          <mxGeometry x="480" y="210" width="80" height="40" as="geometry" />
        </mxCell>
        <mxCell id="Be3EVX6OcVUmw23MF_M5-8" value="Especialidad" style="ellipse;whiteSpace=wrap;html=1;" vertex="1" parent="1">
          <mxGeometry x="680" y="210" width="80" height="40" as="geometry" />
        </mxCell>
        <mxCell id="Be3EVX6OcVUmw23MF_M5-9" value="&lt;h1&gt;(1,N)&lt;/h1&gt;" style="text;html=1;align=center;verticalAlign=middle;resizable=0;points=[];autosize=1;strokeColor=none;fillColor=none;" vertex="1" parent="1">
          <mxGeometry x="95" y="455" width="80" height="70" as="geometry" />
        </mxCell>
        <mxCell id="Be3EVX6OcVUmw23MF_M5-10" value="&lt;h1&gt;(1,N)&lt;/h1&gt;" style="text;html=1;align=center;verticalAlign=middle;resizable=0;points=[];autosize=1;strokeColor=none;fillColor=none;" vertex="1" parent="1">
          <mxGeometry x="520" y="385" width="80" height="70" as="geometry" />
        </mxCell>
        <mxCell id="Be3EVX6OcVUmw23MF_M5-11" value="&lt;h1&gt;(1,N)&lt;/h1&gt;" style="text;html=1;align=center;verticalAlign=middle;resizable=0;points=[];autosize=1;strokeColor=none;fillColor=none;" vertex="1" parent="1">
          <mxGeometry x="220" y="970" width="80" height="70" as="geometry" />
        </mxCell>
        <mxCell id="Be3EVX6OcVUmw23MF_M5-12" value="Primer nombre" style="ellipse;whiteSpace=wrap;html=1;" vertex="1" parent="1">
          <mxGeometry x="160" y="900" width="80" height="40" as="geometry" />
        </mxCell>
        <mxCell id="Be3EVX6OcVUmw23MF_M5-13" value="Apellido" style="ellipse;whiteSpace=wrap;html=1;" vertex="1" parent="1">
          <mxGeometry x="280" y="900" width="80" height="40" as="geometry" />
        </mxCell>
        <mxCell id="Be3EVX6OcVUmw23MF_M5-14" value="" style="group" vertex="1" connectable="0" parent="1">
          <mxGeometry x="120" y="770" width="80" height="40" as="geometry" />
        </mxCell>
        <mxCell id="Be3EVX6OcVUmw23MF_M5-15" value="" style="ellipse;whiteSpace=wrap;html=1;" vertex="1" parent="Be3EVX6OcVUmw23MF_M5-14">
          <mxGeometry width="80" height="40" as="geometry" />
        </mxCell>
        <mxCell id="Be3EVX6OcVUmw23MF_M5-16" value="NÃºmero de telefono" style="ellipse;whiteSpace=wrap;html=1;" vertex="1" parent="Be3EVX6OcVUmw23MF_M5-14">
          <mxGeometry x="5" y="5" width="70" height="30" as="geometry" />
        </mxCell>
        <mxCell id="Be3EVX6OcVUmw23MF_M5-17" value="" style="endArrow=none;html=1;rounded=0;exitX=0.5;exitY=0;exitDx=0;exitDy=0;entryX=0;entryY=1;entryDx=0;entryDy=0;" edge="1" parent="1" source="Be3EVX6OcVUmw23MF_M5-12" target="Be3EVX6OcVUmw23MF_M5-4">
          <mxGeometry width="50" height="50" relative="1" as="geometry">
            <mxPoint x="250" y="880" as="sourcePoint" />
            <mxPoint x="300" y="830" as="targetPoint" />
          </mxGeometry>
        </mxCell>
        <mxCell id="Be3EVX6OcVUmw23MF_M5-18" value="" style="endArrow=none;html=1;rounded=0;exitX=0.5;exitY=0;exitDx=0;exitDy=0;entryX=1;entryY=1;entryDx=0;entryDy=0;" edge="1" parent="1" source="Be3EVX6OcVUmw23MF_M5-13" target="Be3EVX6OcVUmw23MF_M5-4">
          <mxGeometry width="50" height="50" relative="1" as="geometry">
            <mxPoint x="270" y="900" as="sourcePoint" />
            <mxPoint x="320" y="850" as="targetPoint" />
          </mxGeometry>
        </mxCell>
        <mxCell id="Be3EVX6OcVUmw23MF_M5-19" value="" style="endArrow=none;html=1;rounded=0;entryX=0.5;entryY=1;entryDx=0;entryDy=0;exitX=0.5;exitY=0;exitDx=0;exitDy=0;" edge="1" parent="1" source="Be3EVX6OcVUmw23MF_M5-4" target="Be3EVX6OcVUmw23MF_M5-2">
          <mxGeometry width="50" height="50" relative="1" as="geometry">
            <mxPoint x="280" y="910" as="sourcePoint" />
            <mxPoint x="330" y="860" as="targetPoint" />
          </mxGeometry>
        </mxCell>
        <mxCell id="Be3EVX6OcVUmw23MF_M5-20" value="" style="endArrow=none;html=1;rounded=0;entryX=0.25;entryY=1;entryDx=0;entryDy=0;" edge="1" parent="1" target="Be3EVX6OcVUmw23MF_M5-2">
          <mxGeometry width="50" height="50" relative="1" as="geometry">
            <mxPoint x="160" y="770" as="sourcePoint" />
            <mxPoint x="210" y="720" as="targetPoint" />
          </mxGeometry>
        </mxCell>
        <mxCell id="Be3EVX6OcVUmw23MF_M5-21" value="" style="endArrow=none;html=1;rounded=0;exitX=0.75;exitY=1;exitDx=0;exitDy=0;entryX=0.5;entryY=0;entryDx=0;entryDy=0;" edge="1" parent="1" source="Be3EVX6OcVUmw23MF_M5-2" target="Be3EVX6OcVUmw23MF_M5-5">
          <mxGeometry width="50" height="50" relative="1" as="geometry">
            <mxPoint x="300" y="930" as="sourcePoint" />
            <mxPoint x="350" y="880" as="targetPoint" />
          </mxGeometry>
        </mxCell>
        <mxCell id="Be3EVX6OcVUmw23MF_M5-22" value="" style="endArrow=none;html=1;rounded=0;exitX=0.5;exitY=0;exitDx=0;exitDy=0;entryX=0.5;entryY=1;entryDx=0;entryDy=0;" edge="1" parent="1" source="Be3EVX6OcVUmw23MF_M5-2" target="Be3EVX6OcVUmw23MF_M5-3">
          <mxGeometry width="50" height="50" relative="1" as="geometry">
            <mxPoint x="570" y="570" as="sourcePoint" />
            <mxPoint x="620" y="530" as="targetPoint" />
          </mxGeometry>
        </mxCell>
        <mxCell id="Be3EVX6OcVUmw23MF_M5-23" value="" style="endArrow=none;html=1;rounded=0;entryX=0.5;entryY=1;entryDx=0;entryDy=0;exitX=0.5;exitY=0;exitDx=0;exitDy=0;" edge="1" parent="1" source="Be3EVX6OcVUmw23MF_M5-3" target="Be3EVX6OcVUmw23MF_M5-30">
          <mxGeometry width="50" height="50" relative="1" as="geometry">
            <mxPoint x="620" y="450" as="sourcePoint" />
            <mxPoint x="620" y="390" as="targetPoint" />
          </mxGeometry>
        </mxCell>
        <mxCell id="Be3EVX6OcVUmw23MF_M5-24" value="" style="endArrow=none;html=1;rounded=0;entryX=0.5;entryY=1;entryDx=0;entryDy=0;exitX=0.5;exitY=0;exitDx=0;exitDy=0;" edge="1" parent="1" source="Be3EVX6OcVUmw23MF_M5-1" target="Be3EVX6OcVUmw23MF_M5-6">
          <mxGeometry width="50" height="50" relative="1" as="geometry">
            <mxPoint x="619.5" y="280" as="sourcePoint" />
            <mxPoint x="619.5" y="200" as="targetPoint" />
          </mxGeometry>
        </mxCell>
        <mxCell id="Be3EVX6OcVUmw23MF_M5-25" value="" style="endArrow=none;html=1;rounded=0;entryX=0.5;entryY=1;entryDx=0;entryDy=0;exitX=0.25;exitY=0;exitDx=0;exitDy=0;" edge="1" parent="1" source="Be3EVX6OcVUmw23MF_M5-1" target="Be3EVX6OcVUmw23MF_M5-7">
          <mxGeometry width="50" height="50" relative="1" as="geometry">
            <mxPoint x="640" y="470" as="sourcePoint" />
            <mxPoint x="640" y="390" as="targetPoint" />
          </mxGeometry>
        </mxCell>
        <mxCell id="Be3EVX6OcVUmw23MF_M5-26" value="" style="endArrow=none;html=1;rounded=0;entryX=0.5;entryY=1;entryDx=0;entryDy=0;exitX=0.75;exitY=0;exitDx=0;exitDy=0;" edge="1" parent="1" source="Be3EVX6OcVUmw23MF_M5-1" target="Be3EVX6OcVUmw23MF_M5-8">
          <mxGeometry width="50" height="50" relative="1" as="geometry">
            <mxPoint x="650" y="480" as="sourcePoint" />
            <mxPoint x="650" y="400" as="targetPoint" />
          </mxGeometry>
        </mxCell>
        <mxCell id="Be3EVX6OcVUmw23MF_M5-27" value="" style="endArrow=none;html=1;rounded=0;entryX=1;entryY=0.5;entryDx=0;entryDy=0;exitX=0;exitY=0.5;exitDx=0;exitDy=0;" edge="1" parent="1" source="Be3EVX6OcVUmw23MF_M5-1">
          <mxGeometry width="50" height="50" relative="1" as="geometry">
            <mxPoint x="490" y="410" as="sourcePoint" />
            <mxPoint x="480" y="330" as="targetPoint" />
          </mxGeometry>
        </mxCell>
        <mxCell id="Be3EVX6OcVUmw23MF_M5-28" value="" style="rhombus;whiteSpace=wrap;html=1;" vertex="1" parent="1">
          <mxGeometry x="400" y="290" width="80" height="80" as="geometry" />
        </mxCell>
        <mxCell id="Be3EVX6OcVUmw23MF_M5-29" value="" style="endArrow=none;html=1;rounded=0;entryX=1;entryY=0.5;entryDx=0;entryDy=0;exitX=0;exitY=0.5;exitDx=0;exitDy=0;" edge="1" parent="1">
          <mxGeometry width="50" height="50" relative="1" as="geometry">
            <mxPoint x="400" y="329.5" as="sourcePoint" />
            <mxPoint x="320" y="329.5" as="targetPoint" />
          </mxGeometry>
        </mxCell>
        <mxCell id="Be3EVX6OcVUmw23MF_M5-30" value="&lt;h1&gt;Examen&lt;/h1&gt;" style="rounded=0;whiteSpace=wrap;html=1;" vertex="1" parent="1">
          <mxGeometry x="200" y="295" width="120" height="80" as="geometry" />
        </mxCell>
        <mxCell id="Be3EVX6OcVUmw23MF_M5-31" value="&lt;h1&gt;(N,1)&lt;/h1&gt;" style="text;html=1;align=center;verticalAlign=middle;resizable=0;points=[];autosize=1;strokeColor=none;fillColor=none;" vertex="1" parent="1">
          <mxGeometry x="95" y="295" width="80" height="70" as="geometry" />
        </mxCell>
        <mxCell id="Be3EVX6OcVUmw23MF_M5-32" value="&lt;h1&gt;(1,N)&lt;/h1&gt;" style="text;html=1;align=center;verticalAlign=middle;resizable=0;points=[];autosize=1;strokeColor=none;fillColor=none;" vertex="1" parent="1">
          <mxGeometry x="400" y="420" width="80" height="70" as="geometry" />
        </mxCell>
        <mxCell id="Be3EVX6OcVUmw23MF_M5-33" value="&lt;h1&gt;(1,N)&lt;/h1&gt;" style="text;html=1;align=center;verticalAlign=middle;resizable=0;points=[];autosize=1;strokeColor=none;fillColor=none;" vertex="1" parent="1">
          <mxGeometry x="300" y="380" width="80" height="70" as="geometry" />
        </mxCell>
        <mxCell id="Be3EVX6OcVUmw23MF_M5-34" value="Fecha" style="ellipse;whiteSpace=wrap;html=1;" vertex="1" parent="1">
          <mxGeometry x="220" y="50" width="80" height="40" as="geometry" />
        </mxCell>
        <mxCell id="Be3EVX6OcVUmw23MF_M5-35" value="Hora" style="ellipse;whiteSpace=wrap;html=1;" vertex="1" parent="1">
          <mxGeometry x="120" y="210" width="80" height="40" as="geometry" />
        </mxCell>
        <mxCell id="Be3EVX6OcVUmw23MF_M5-36" value="Resultados" style="ellipse;whiteSpace=wrap;html=1;" vertex="1" parent="1">
          <mxGeometry x="320" y="210" width="80" height="40" as="geometry" />
        </mxCell>
        <mxCell id="Be3EVX6OcVUmw23MF_M5-37" value="" style="endArrow=none;html=1;rounded=0;entryX=0.5;entryY=1;entryDx=0;entryDy=0;exitX=0;exitY=0;exitDx=0;exitDy=0;" edge="1" parent="1" source="Be3EVX6OcVUmw23MF_M5-30" target="Be3EVX6OcVUmw23MF_M5-35">
          <mxGeometry width="50" height="50" relative="1" as="geometry">
            <mxPoint x="230" y="290" as="sourcePoint" />
            <mxPoint x="160" y="210" as="targetPoint" />
          </mxGeometry>
        </mxCell>
        <mxCell id="Be3EVX6OcVUmw23MF_M5-38" value="" style="endArrow=none;html=1;rounded=0;entryX=0.495;entryY=1;entryDx=0;entryDy=0;exitX=0.5;exitY=0;exitDx=0;exitDy=0;entryPerimeter=0;" edge="1" parent="1" target="Be3EVX6OcVUmw23MF_M5-34">
          <mxGeometry width="50" height="50" relative="1" as="geometry">
            <mxPoint x="259.58" y="295" as="sourcePoint" />
            <mxPoint x="259.58" y="135" as="targetPoint" />
          </mxGeometry>
        </mxCell>
        <mxCell id="Be3EVX6OcVUmw23MF_M5-39" value="" style="endArrow=none;html=1;rounded=0;entryX=0.5;entryY=1;entryDx=0;entryDy=0;exitX=1;exitY=0;exitDx=0;exitDy=0;" edge="1" parent="1" source="Be3EVX6OcVUmw23MF_M5-30" target="Be3EVX6OcVUmw23MF_M5-36">
          <mxGeometry width="50" height="50" relative="1" as="geometry">
            <mxPoint x="290" y="295" as="sourcePoint" />
            <mxPoint x="360" y="215" as="targetPoint" />
          </mxGeometry>
        </mxCell>
        <mxCell id="Be3EVX6OcVUmw23MF_M5-40" value="Fecha de nacimiento" style="ellipse;whiteSpace=wrap;html=1;" vertex="1" parent="1">
          <mxGeometry x="360" y="690" width="80" height="40" as="geometry" />
        </mxCell>
        <mxCell id="Be3EVX6OcVUmw23MF_M5-41" value="Tipo sanguineo" style="ellipse;whiteSpace=wrap;html=1;" vertex="1" parent="1">
          <mxGeometry x="80" y="690" width="80" height="40" as="geometry" />
        </mxCell>
        <mxCell id="Be3EVX6OcVUmw23MF_M5-42" value="" style="endArrow=none;html=1;rounded=0;entryX=0;entryY=1;entryDx=0;entryDy=0;exitX=1;exitY=0.5;exitDx=0;exitDy=0;" edge="1" parent="1" source="Be3EVX6OcVUmw23MF_M5-41" target="Be3EVX6OcVUmw23MF_M5-2">
          <mxGeometry width="50" height="50" relative="1" as="geometry">
            <mxPoint x="170" y="780" as="sourcePoint" />
            <mxPoint x="240" y="700" as="targetPoint" />
          </mxGeometry>
        </mxCell>
        <mxCell id="Be3EVX6OcVUmw23MF_M5-43" value="" style="endArrow=none;html=1;rounded=0;exitX=1;exitY=1;exitDx=0;exitDy=0;entryX=0;entryY=0.5;entryDx=0;entryDy=0;" edge="1" parent="1" source="Be3EVX6OcVUmw23MF_M5-2" target="Be3EVX6OcVUmw23MF_M5-40">
          <mxGeometry width="50" height="50" relative="1" as="geometry">
            <mxPoint x="300" y="700" as="sourcePoint" />
            <mxPoint x="370" y="780" as="targetPoint" />
          </mxGeometry>
        </mxCell>
        <mxCell id="Be3EVX6OcVUmw23MF_M5-44" value="Primer nombre" style="ellipse;whiteSpace=wrap;html=1;" vertex="1" parent="1">
          <mxGeometry x="520" y="50" width="80" height="40" as="geometry" />
        </mxCell>
        <mxCell id="Be3EVX6OcVUmw23MF_M5-45" value="Apellido" style="ellipse;whiteSpace=wrap;html=1;" vertex="1" parent="1">
          <mxGeometry x="640" y="50" width="80" height="40" as="geometry" />
        </mxCell>
        <mxCell id="Be3EVX6OcVUmw23MF_M5-46" value="" style="endArrow=none;html=1;rounded=0;entryX=0.5;entryY=1;entryDx=0;entryDy=0;exitX=1;exitY=0;exitDx=0;exitDy=0;" edge="1" parent="1" source="Be3EVX6OcVUmw23MF_M5-6" target="Be3EVX6OcVUmw23MF_M5-45">
          <mxGeometry width="50" height="50" relative="1" as="geometry">
            <mxPoint x="630" y="300" as="sourcePoint" />
            <mxPoint x="630" y="180" as="targetPoint" />
          </mxGeometry>
        </mxCell>
        <mxCell id="Be3EVX6OcVUmw23MF_M5-47" value="" style="endArrow=none;html=1;rounded=0;exitX=0;exitY=0;exitDx=0;exitDy=0;entryX=0.5;entryY=1;entryDx=0;entryDy=0;" edge="1" parent="1" source="Be3EVX6OcVUmw23MF_M5-6" target="Be3EVX6OcVUmw23MF_M5-44">
          <mxGeometry width="50" height="50" relative="1" as="geometry">
            <mxPoint x="630" y="300" as="sourcePoint" />
            <mxPoint x="580" y="110" as="targetPoint" />
          </mxGeometry>
        </mxCell>
        <mxCell id="Be3EVX6OcVUmw23MF_M5-48" value="Tipo" style="ellipse;whiteSpace=wrap;html=1;" vertex="1" parent="1">
          <mxGeometry x="155" y="130" width="80" height="40" as="geometry" />
        </mxCell>
        <mxCell id="Be3EVX6OcVUmw23MF_M5-49" value="ID" style="ellipse;whiteSpace=wrap;html=1;" vertex="1" parent="1">
          <mxGeometry x="275" y="130" width="80" height="40" as="geometry" />
        </mxCell>
        <mxCell id="Be3EVX6OcVUmw23MF_M5-50" value="" style="endArrow=none;html=1;rounded=0;entryX=0.5;entryY=1;entryDx=0;entryDy=0;exitX=0.75;exitY=0;exitDx=0;exitDy=0;" edge="1" parent="1" source="Be3EVX6OcVUmw23MF_M5-30" target="Be3EVX6OcVUmw23MF_M5-49">
          <mxGeometry width="50" height="50" relative="1" as="geometry">
            <mxPoint x="269.58" y="305" as="sourcePoint" />
            <mxPoint x="270" y="100" as="targetPoint" />
          </mxGeometry>
        </mxCell>
        <mxCell id="Be3EVX6OcVUmw23MF_M5-51" value="" style="endArrow=none;html=1;rounded=0;entryX=0.5;entryY=1;entryDx=0;entryDy=0;exitX=0.25;exitY=0;exitDx=0;exitDy=0;" edge="1" parent="1" source="Be3EVX6OcVUmw23MF_M5-30" target="Be3EVX6OcVUmw23MF_M5-48">
          <mxGeometry width="50" height="50" relative="1" as="geometry">
            <mxPoint x="269.58" y="305" as="sourcePoint" />
            <mxPoint x="270" y="100" as="targetPoint" />
          </mxGeometry>
        </mxCell>
        <mxCell id="Be3EVX6OcVUmw23MF_M5-54" value="Consulta" style="shape=rhombus;perimeter=rhombusPerimeter;whiteSpace=wrap;html=1;align=center;" vertex="1" parent="1">
          <mxGeometry x="560" y="620" width="120" height="60" as="geometry" />
        </mxCell>
        <mxCell id="Be3EVX6OcVUmw23MF_M5-55" value="" style="endArrow=none;html=1;rounded=0;exitX=0.5;exitY=0;exitDx=0;exitDy=0;entryX=0.5;entryY=1;entryDx=0;entryDy=0;" edge="1" parent="1" source="Be3EVX6OcVUmw23MF_M5-54" target="Be3EVX6OcVUmw23MF_M5-1">
          <mxGeometry width="50" height="50" relative="1" as="geometry">
            <mxPoint x="630" y="300" as="sourcePoint" />
            <mxPoint x="630" y="380" as="targetPoint" />
          </mxGeometry>
        </mxCell>
        <mxCell id="Be3EVX6OcVUmw23MF_M5-56" value="" style="endArrow=none;html=1;rounded=0;exitX=0;exitY=0.5;exitDx=0;exitDy=0;entryX=1;entryY=0.5;entryDx=0;entryDy=0;" edge="1" parent="1" source="Be3EVX6OcVUmw23MF_M5-54" target="Be3EVX6OcVUmw23MF_M5-2">
          <mxGeometry width="50" height="50" relative="1" as="geometry">
            <mxPoint x="630" y="635" as="sourcePoint" />
            <mxPoint x="630" y="380" as="targetPoint" />
          </mxGeometry>
        </mxCell>
        <mxCell id="Be3EVX6OcVUmw23MF_M5-57" value="Fecha" style="ellipse;whiteSpace=wrap;html=1;" vertex="1" parent="1">
          <mxGeometry x="530" y="720" width="80" height="40" as="geometry" />
        </mxCell>
        <mxCell id="Be3EVX6OcVUmw23MF_M5-58" value="" style="endArrow=none;html=1;rounded=0;entryX=0;entryY=1;entryDx=0;entryDy=0;exitX=0.5;exitY=0;exitDx=0;exitDy=0;" edge="1" parent="1" source="Be3EVX6OcVUmw23MF_M5-57" target="Be3EVX6OcVUmw23MF_M5-54">
          <mxGeometry width="50" height="50" relative="1" as="geometry">
            <mxPoint x="270" y="820" as="sourcePoint" />
            <mxPoint x="270" y="700" as="targetPoint" />
          </mxGeometry>
        </mxCell>
        <mxCell id="Be3EVX6OcVUmw23MF_M5-60" value="ID" style="ellipse;whiteSpace=wrap;html=1;" vertex="1" parent="1">
          <mxGeometry x="640" y="720" width="80" height="40" as="geometry" />
        </mxCell>
        <mxCell id="Be3EVX6OcVUmw23MF_M5-61" value="" style="endArrow=none;html=1;rounded=0;entryX=1;entryY=1;entryDx=0;entryDy=0;exitX=0.5;exitY=0;exitDx=0;exitDy=0;" edge="1" parent="1" source="Be3EVX6OcVUmw23MF_M5-60" target="Be3EVX6OcVUmw23MF_M5-54">
          <mxGeometry width="50" height="50" relative="1" as="geometry">
            <mxPoint x="580" y="730" as="sourcePoint" />
            <mxPoint x="600" y="675" as="targetPoint" />
          </mxGeometry>
        </mxCell>
        <mxCell id="Be3EVX6OcVUmw23MF_M5-62" value="&lt;h1&gt;(N,N)&lt;/h1&gt;" style="text;html=1;align=center;verticalAlign=middle;resizable=0;points=[];autosize=1;strokeColor=none;fillColor=none;" vertex="1" parent="1">
          <mxGeometry x="700" y="615" width="80" height="70" as="geometry" />
        </mxCell>
        <mxCell id="Be3EVX6OcVUmw23MF_M5-63" value="&lt;h1&gt;(1,N)&lt;/h1&gt;" style="text;html=1;align=center;verticalAlign=middle;resizable=0;points=[];autosize=1;strokeColor=none;fillColor=none;" vertex="1" parent="1">
          <mxGeometry x="690" y="370" width="80" height="70" as="geometry" />
        </mxCell>
      </root>
    </mxGraphModel>
  </diagram>
  <diagram id="3fI4-421p9aWdv-yNvRu" name="Tp1-c)">
    <mxGraphModel dx="1320" dy="818" grid="1" gridSize="10" guides="1" tooltips="1" connect="1" arrows="1" fold="1" page="1" pageScale="1" pageWidth="850" pageHeight="1100" math="0" shadow="0">
      <root>
        <mxCell id="0" />
        <mxCell id="1" parent="0" />
        <mxCell id="U-_mnzm5YLeT8sS-xoxI-2" value="&lt;h1&gt;Partidos&lt;/h1&gt;" style="rounded=0;whiteSpace=wrap;html=1;" vertex="1" parent="1">
          <mxGeometry x="600" y="360" width="120" height="80" as="geometry" />
        </mxCell>
        <mxCell id="U-_mnzm5YLeT8sS-xoxI-3" value="&lt;h1&gt;Jugadores&lt;/h1&gt;" style="rounded=0;whiteSpace=wrap;html=1;" vertex="1" parent="1">
          <mxGeometry x="160" y="670" width="120" height="80" as="geometry" />
        </mxCell>
        <mxCell id="U-_mnzm5YLeT8sS-xoxI-4" value="" style="rhombus;whiteSpace=wrap;html=1;" vertex="1" parent="1">
          <mxGeometry x="180" y="520" width="80" height="80" as="geometry" />
        </mxCell>
        <mxCell id="U-_mnzm5YLeT8sS-xoxI-5" value="Nombre" style="ellipse;whiteSpace=wrap;html=1;" vertex="1" parent="1">
          <mxGeometry x="180" y="830" width="80" height="40" as="geometry" />
        </mxCell>
        <mxCell id="U-_mnzm5YLeT8sS-xoxI-6" value="PosiciÃ³n" style="ellipse;whiteSpace=wrap;html=1;" vertex="1" parent="1">
          <mxGeometry x="280" y="790" width="80" height="40" as="geometry" />
        </mxCell>
        <mxCell id="U-_mnzm5YLeT8sS-xoxI-7" value="Resultados" style="ellipse;whiteSpace=wrap;html=1;" vertex="1" parent="1">
          <mxGeometry x="620" y="200" width="80" height="40" as="geometry" />
        </mxCell>
        <mxCell id="U-_mnzm5YLeT8sS-xoxI-11" value="&lt;h1&gt;(1,1)&lt;/h1&gt;" style="text;html=1;align=center;verticalAlign=middle;resizable=0;points=[];autosize=1;strokeColor=none;fillColor=none;" vertex="1" parent="1">
          <mxGeometry x="75" y="675" width="70" height="70" as="geometry" />
        </mxCell>
        <mxCell id="U-_mnzm5YLeT8sS-xoxI-12" value="Primer nombre" style="ellipse;whiteSpace=wrap;html=1;" vertex="1" parent="1">
          <mxGeometry x="120" y="910" width="80" height="40" as="geometry" />
        </mxCell>
        <mxCell id="U-_mnzm5YLeT8sS-xoxI-13" value="Apellido" style="ellipse;whiteSpace=wrap;html=1;" vertex="1" parent="1">
          <mxGeometry x="240" y="910" width="80" height="40" as="geometry" />
        </mxCell>
        <mxCell id="U-_mnzm5YLeT8sS-xoxI-14" value="" style="endArrow=none;html=1;rounded=0;exitX=0.5;exitY=0;exitDx=0;exitDy=0;entryX=0;entryY=1;entryDx=0;entryDy=0;" edge="1" parent="1" source="U-_mnzm5YLeT8sS-xoxI-12" target="U-_mnzm5YLeT8sS-xoxI-5">
          <mxGeometry width="50" height="50" relative="1" as="geometry">
            <mxPoint x="210" y="900" as="sourcePoint" />
            <mxPoint x="260" y="850" as="targetPoint" />
          </mxGeometry>
        </mxCell>
        <mxCell id="U-_mnzm5YLeT8sS-xoxI-15" value="" style="endArrow=none;html=1;rounded=0;exitX=0.5;exitY=0;exitDx=0;exitDy=0;entryX=1;entryY=1;entryDx=0;entryDy=0;" edge="1" parent="1" source="U-_mnzm5YLeT8sS-xoxI-13" target="U-_mnzm5YLeT8sS-xoxI-5">
          <mxGeometry width="50" height="50" relative="1" as="geometry">
            <mxPoint x="230" y="920" as="sourcePoint" />
            <mxPoint x="280" y="870" as="targetPoint" />
          </mxGeometry>
        </mxCell>
        <mxCell id="U-_mnzm5YLeT8sS-xoxI-16" value="" style="endArrow=none;html=1;rounded=0;entryX=0.5;entryY=1;entryDx=0;entryDy=0;exitX=0.5;exitY=0;exitDx=0;exitDy=0;" edge="1" parent="1" source="U-_mnzm5YLeT8sS-xoxI-5" target="U-_mnzm5YLeT8sS-xoxI-3">
          <mxGeometry width="50" height="50" relative="1" as="geometry">
            <mxPoint x="220" y="770" as="sourcePoint" />
            <mxPoint x="290" y="920" as="targetPoint" />
          </mxGeometry>
        </mxCell>
        <mxCell id="U-_mnzm5YLeT8sS-xoxI-17" value="" style="endArrow=none;html=1;rounded=0;entryX=0.25;entryY=1;entryDx=0;entryDy=0;" edge="1" parent="1" target="U-_mnzm5YLeT8sS-xoxI-3">
          <mxGeometry width="50" height="50" relative="1" as="geometry">
            <mxPoint x="120" y="830" as="sourcePoint" />
            <mxPoint x="170" y="780" as="targetPoint" />
          </mxGeometry>
        </mxCell>
        <mxCell id="U-_mnzm5YLeT8sS-xoxI-18" value="" style="endArrow=none;html=1;rounded=0;exitX=0.75;exitY=1;exitDx=0;exitDy=0;entryX=0.5;entryY=0;entryDx=0;entryDy=0;" edge="1" parent="1" source="U-_mnzm5YLeT8sS-xoxI-3" target="U-_mnzm5YLeT8sS-xoxI-6">
          <mxGeometry width="50" height="50" relative="1" as="geometry">
            <mxPoint x="260" y="990" as="sourcePoint" />
            <mxPoint x="310" y="940" as="targetPoint" />
          </mxGeometry>
        </mxCell>
        <mxCell id="U-_mnzm5YLeT8sS-xoxI-21" value="" style="endArrow=none;html=1;rounded=0;entryX=0.5;entryY=1;entryDx=0;entryDy=0;exitX=0.5;exitY=0;exitDx=0;exitDy=0;" edge="1" parent="1" source="U-_mnzm5YLeT8sS-xoxI-2" target="U-_mnzm5YLeT8sS-xoxI-7">
          <mxGeometry width="50" height="50" relative="1" as="geometry">
            <mxPoint x="500" y="540" as="sourcePoint" />
            <mxPoint x="500" y="460" as="targetPoint" />
          </mxGeometry>
        </mxCell>
        <mxCell id="U-_mnzm5YLeT8sS-xoxI-23" value="&lt;h1&gt;Estadisticas&lt;/h1&gt;" style="rounded=0;whiteSpace=wrap;html=1;" vertex="1" parent="1">
          <mxGeometry x="600" y="670" width="120" height="80" as="geometry" />
        </mxCell>
        <mxCell id="U-_mnzm5YLeT8sS-xoxI-24" value="" style="rhombus;whiteSpace=wrap;html=1;" vertex="1" parent="1">
          <mxGeometry x="400" y="670" width="80" height="80" as="geometry" />
        </mxCell>
        <mxCell id="U-_mnzm5YLeT8sS-xoxI-25" value="" style="endArrow=none;html=1;rounded=0;exitX=1;exitY=0.5;exitDx=0;exitDy=0;entryX=0;entryY=0.5;entryDx=0;entryDy=0;" edge="1" parent="1" source="U-_mnzm5YLeT8sS-xoxI-3" target="U-_mnzm5YLeT8sS-xoxI-24">
          <mxGeometry width="50" height="50" relative="1" as="geometry">
            <mxPoint x="360.0000000000002" y="710" as="sourcePoint" />
            <mxPoint x="270" y="560" as="targetPoint" />
          </mxGeometry>
        </mxCell>
        <mxCell id="U-_mnzm5YLeT8sS-xoxI-27" value="Goles" style="ellipse;whiteSpace=wrap;html=1;" vertex="1" parent="1">
          <mxGeometry x="520" y="790" width="80" height="40" as="geometry" />
        </mxCell>
        <mxCell id="U-_mnzm5YLeT8sS-xoxI-28" value="Asistencias" style="ellipse;whiteSpace=wrap;html=1;" vertex="1" parent="1">
          <mxGeometry x="720" y="790" width="80" height="40" as="geometry" />
        </mxCell>
        <mxCell id="U-_mnzm5YLeT8sS-xoxI-29" value="Faltas" style="ellipse;whiteSpace=wrap;html=1;" vertex="1" parent="1">
          <mxGeometry x="680" y="870" width="80" height="40" as="geometry" />
        </mxCell>
        <mxCell id="U-_mnzm5YLeT8sS-xoxI-30" value="Tiros al arco" style="ellipse;whiteSpace=wrap;html=1;" vertex="1" parent="1">
          <mxGeometry x="560" y="870" width="80" height="40" as="geometry" />
        </mxCell>
        <mxCell id="U-_mnzm5YLeT8sS-xoxI-31" value="" style="endArrow=none;html=1;rounded=0;exitX=0.5;exitY=0;exitDx=0;exitDy=0;entryX=0.75;entryY=1;entryDx=0;entryDy=0;" edge="1" parent="1" source="U-_mnzm5YLeT8sS-xoxI-29" target="U-_mnzm5YLeT8sS-xoxI-23">
          <mxGeometry width="50" height="50" relative="1" as="geometry">
            <mxPoint x="720" y="910" as="sourcePoint" />
            <mxPoint x="700" y="890" as="targetPoint" />
          </mxGeometry>
        </mxCell>
        <mxCell id="U-_mnzm5YLeT8sS-xoxI-32" value="" style="endArrow=none;html=1;rounded=0;exitX=0.5;exitY=0;exitDx=0;exitDy=0;entryX=0.25;entryY=1;entryDx=0;entryDy=0;" edge="1" parent="1" source="U-_mnzm5YLeT8sS-xoxI-30" target="U-_mnzm5YLeT8sS-xoxI-23">
          <mxGeometry width="50" height="50" relative="1" as="geometry">
            <mxPoint x="670" y="960" as="sourcePoint" />
            <mxPoint x="720" y="910" as="targetPoint" />
          </mxGeometry>
        </mxCell>
        <mxCell id="U-_mnzm5YLeT8sS-xoxI-33" value="" style="endArrow=none;html=1;rounded=0;exitX=0.5;exitY=0;exitDx=0;exitDy=0;entryX=0;entryY=1;entryDx=0;entryDy=0;" edge="1" parent="1" source="U-_mnzm5YLeT8sS-xoxI-27" target="U-_mnzm5YLeT8sS-xoxI-23">
          <mxGeometry width="50" height="50" relative="1" as="geometry">
            <mxPoint x="680" y="970" as="sourcePoint" />
            <mxPoint x="670" y="770" as="targetPoint" />
          </mxGeometry>
        </mxCell>
        <mxCell id="U-_mnzm5YLeT8sS-xoxI-34" value="" style="endArrow=none;html=1;rounded=0;entryX=0.5;entryY=0;entryDx=0;entryDy=0;exitX=1;exitY=1;exitDx=0;exitDy=0;" edge="1" parent="1" source="U-_mnzm5YLeT8sS-xoxI-23" target="U-_mnzm5YLeT8sS-xoxI-28">
          <mxGeometry width="50" height="50" relative="1" as="geometry">
            <mxPoint x="690" y="770" as="sourcePoint" />
            <mxPoint x="750" y="940" as="targetPoint" />
          </mxGeometry>
        </mxCell>
        <mxCell id="U-_mnzm5YLeT8sS-xoxI-35" value="&lt;h1&gt;(1,1)&lt;/h1&gt;" style="text;html=1;align=center;verticalAlign=middle;resizable=0;points=[];autosize=1;strokeColor=none;fillColor=none;" vertex="1" parent="1">
          <mxGeometry x="490" y="720" width="70" height="70" as="geometry" />
        </mxCell>
        <mxCell id="U-_mnzm5YLeT8sS-xoxI-37" value="" style="endArrow=none;html=1;rounded=0;exitX=1;exitY=0.5;exitDx=0;exitDy=0;entryX=0;entryY=0.5;entryDx=0;entryDy=0;" edge="1" parent="1" source="U-_mnzm5YLeT8sS-xoxI-24" target="U-_mnzm5YLeT8sS-xoxI-23">
          <mxGeometry width="50" height="50" relative="1" as="geometry">
            <mxPoint x="520.0000000000002" y="710" as="sourcePoint" />
            <mxPoint x="450" y="720" as="targetPoint" />
          </mxGeometry>
        </mxCell>
        <mxCell id="U-_mnzm5YLeT8sS-xoxI-38" value="" style="endArrow=none;html=1;rounded=0;exitX=0.5;exitY=0;exitDx=0;exitDy=0;entryX=0.5;entryY=1;entryDx=0;entryDy=0;" edge="1" parent="1" source="U-_mnzm5YLeT8sS-xoxI-3" target="U-_mnzm5YLeT8sS-xoxI-4">
          <mxGeometry width="50" height="50" relative="1" as="geometry">
            <mxPoint x="170" y="520" as="sourcePoint" />
            <mxPoint x="310" y="400" as="targetPoint" />
          </mxGeometry>
        </mxCell>
        <mxCell id="U-_mnzm5YLeT8sS-xoxI-40" value="NÃºmero" style="ellipse;whiteSpace=wrap;html=1;" vertex="1" parent="1">
          <mxGeometry x="80" y="790" width="80" height="40" as="geometry" />
        </mxCell>
        <mxCell id="U-_mnzm5YLeT8sS-xoxI-41" value="&lt;h1&gt;(1,1)&lt;/h1&gt;" style="text;html=1;align=center;verticalAlign=middle;resizable=0;points=[];autosize=1;strokeColor=none;fillColor=none;" vertex="1" parent="1">
          <mxGeometry x="405" y="760" width="70" height="70" as="geometry" />
        </mxCell>
        <mxCell id="U-_mnzm5YLeT8sS-xoxI-45" value="Lugar" style="ellipse;whiteSpace=wrap;html=1;" vertex="1" parent="1">
          <mxGeometry x="700" y="280" width="80" height="40" as="geometry" />
        </mxCell>
        <mxCell id="U-_mnzm5YLeT8sS-xoxI-46" value="Fecha" style="ellipse;whiteSpace=wrap;html=1;" vertex="1" parent="1">
          <mxGeometry x="540" y="280" width="80" height="40" as="geometry" />
        </mxCell>
        <mxCell id="U-_mnzm5YLeT8sS-xoxI-48" value="" style="endArrow=none;html=1;rounded=0;entryX=0.5;entryY=1;entryDx=0;entryDy=0;exitX=0.25;exitY=0;exitDx=0;exitDy=0;" edge="1" parent="1" source="U-_mnzm5YLeT8sS-xoxI-2" target="U-_mnzm5YLeT8sS-xoxI-46">
          <mxGeometry width="50" height="50" relative="1" as="geometry">
            <mxPoint x="610" y="370" as="sourcePoint" />
            <mxPoint x="550" y="330" as="targetPoint" />
          </mxGeometry>
        </mxCell>
        <mxCell id="U-_mnzm5YLeT8sS-xoxI-49" value="" style="endArrow=none;html=1;rounded=0;entryX=0.5;entryY=1;entryDx=0;entryDy=0;exitX=0.75;exitY=0;exitDx=0;exitDy=0;" edge="1" parent="1" source="U-_mnzm5YLeT8sS-xoxI-2" target="U-_mnzm5YLeT8sS-xoxI-45">
          <mxGeometry width="50" height="50" relative="1" as="geometry">
            <mxPoint x="640" y="370" as="sourcePoint" />
            <mxPoint x="590" y="250" as="targetPoint" />
          </mxGeometry>
        </mxCell>
        <mxCell id="U-_mnzm5YLeT8sS-xoxI-50" value="&lt;h1&gt;Equipo&lt;/h1&gt;" style="rounded=0;whiteSpace=wrap;html=1;" vertex="1" parent="1">
          <mxGeometry x="160" y="360" width="120" height="80" as="geometry" />
        </mxCell>
        <mxCell id="U-_mnzm5YLeT8sS-xoxI-51" value="" style="endArrow=none;html=1;rounded=0;exitX=0.5;exitY=0;exitDx=0;exitDy=0;entryX=0.5;entryY=1;entryDx=0;entryDy=0;" edge="1" parent="1" source="U-_mnzm5YLeT8sS-xoxI-4" target="U-_mnzm5YLeT8sS-xoxI-50">
          <mxGeometry width="50" height="50" relative="1" as="geometry">
            <mxPoint x="230" y="680" as="sourcePoint" />
            <mxPoint x="230" y="610" as="targetPoint" />
          </mxGeometry>
        </mxCell>
        <mxCell id="U-_mnzm5YLeT8sS-xoxI-52" value="Nombre" style="ellipse;whiteSpace=wrap;html=1;" vertex="1" parent="1">
          <mxGeometry x="100" y="280" width="80" height="40" as="geometry" />
        </mxCell>
        <mxCell id="U-_mnzm5YLeT8sS-xoxI-53" value="Ciudad" style="ellipse;whiteSpace=wrap;html=1;" vertex="1" parent="1">
          <mxGeometry x="260" y="280" width="80" height="40" as="geometry" />
        </mxCell>
        <mxCell id="U-_mnzm5YLeT8sS-xoxI-55" value="Partidos jugados" style="ellipse;whiteSpace=wrap;html=1;" vertex="1" parent="1">
          <mxGeometry x="180" y="200" width="80" height="40" as="geometry" />
        </mxCell>
        <mxCell id="U-_mnzm5YLeT8sS-xoxI-56" value="" style="endArrow=none;html=1;rounded=0;entryX=0.5;entryY=1;entryDx=0;entryDy=0;exitX=0.25;exitY=0;exitDx=0;exitDy=0;" edge="1" parent="1" source="U-_mnzm5YLeT8sS-xoxI-50" target="U-_mnzm5YLeT8sS-xoxI-52">
          <mxGeometry width="50" height="50" relative="1" as="geometry">
            <mxPoint x="640" y="370" as="sourcePoint" />
            <mxPoint x="590" y="330" as="targetPoint" />
          </mxGeometry>
        </mxCell>
        <mxCell id="U-_mnzm5YLeT8sS-xoxI-57" value="" style="endArrow=none;html=1;rounded=0;entryX=0.75;entryY=0;entryDx=0;entryDy=0;exitX=0.5;exitY=1;exitDx=0;exitDy=0;" edge="1" parent="1" source="U-_mnzm5YLeT8sS-xoxI-53" target="U-_mnzm5YLeT8sS-xoxI-50">
          <mxGeometry width="50" height="50" relative="1" as="geometry">
            <mxPoint x="200" y="370" as="sourcePoint" />
            <mxPoint x="150" y="330" as="targetPoint" />
          </mxGeometry>
        </mxCell>
        <mxCell id="U-_mnzm5YLeT8sS-xoxI-58" value="" style="endArrow=none;html=1;rounded=0;entryX=0.5;entryY=0;entryDx=0;entryDy=0;exitX=0.5;exitY=1;exitDx=0;exitDy=0;" edge="1" parent="1" source="U-_mnzm5YLeT8sS-xoxI-55" target="U-_mnzm5YLeT8sS-xoxI-50">
          <mxGeometry width="50" height="50" relative="1" as="geometry">
            <mxPoint x="310" y="330" as="sourcePoint" />
            <mxPoint x="260" y="370" as="targetPoint" />
          </mxGeometry>
        </mxCell>
        <mxCell id="U-_mnzm5YLeT8sS-xoxI-59" value="" style="rhombus;whiteSpace=wrap;html=1;" vertex="1" parent="1">
          <mxGeometry x="400" y="360" width="80" height="80" as="geometry" />
        </mxCell>
        <mxCell id="U-_mnzm5YLeT8sS-xoxI-60" value="" style="endArrow=none;html=1;rounded=0;exitX=1;exitY=0.5;exitDx=0;exitDy=0;entryX=0;entryY=0.5;entryDx=0;entryDy=0;" edge="1" parent="1" target="U-_mnzm5YLeT8sS-xoxI-59" source="U-_mnzm5YLeT8sS-xoxI-50">
          <mxGeometry width="50" height="50" relative="1" as="geometry">
            <mxPoint x="280" y="400" as="sourcePoint" />
            <mxPoint x="270" y="250" as="targetPoint" />
          </mxGeometry>
        </mxCell>
        <mxCell id="U-_mnzm5YLeT8sS-xoxI-61" value="" style="endArrow=none;html=1;rounded=0;exitX=1;exitY=0.5;exitDx=0;exitDy=0;entryX=0;entryY=0.5;entryDx=0;entryDy=0;" edge="1" parent="1" source="U-_mnzm5YLeT8sS-xoxI-59" target="U-_mnzm5YLeT8sS-xoxI-2">
          <mxGeometry width="50" height="50" relative="1" as="geometry">
            <mxPoint x="520.0000000000002" y="400" as="sourcePoint" />
            <mxPoint x="570" y="400" as="targetPoint" />
          </mxGeometry>
        </mxCell>
        <mxCell id="U-_mnzm5YLeT8sS-xoxI-62" value="" style="rhombus;whiteSpace=wrap;html=1;" vertex="1" parent="1">
          <mxGeometry x="400" y="520" width="80" height="80" as="geometry" />
        </mxCell>
        <mxCell id="U-_mnzm5YLeT8sS-xoxI-63" value="" style="endArrow=none;html=1;rounded=0;exitX=1;exitY=0.5;exitDx=0;exitDy=0;entryX=0.5;entryY=1;entryDx=0;entryDy=0;" edge="1" parent="1" source="U-_mnzm5YLeT8sS-xoxI-62" target="U-_mnzm5YLeT8sS-xoxI-2">
          <mxGeometry width="50" height="50" relative="1" as="geometry">
            <mxPoint x="490" y="720" as="sourcePoint" />
            <mxPoint x="610" y="720" as="targetPoint" />
          </mxGeometry>
        </mxCell>
        <mxCell id="U-_mnzm5YLeT8sS-xoxI-64" value="" style="endArrow=none;html=1;rounded=0;exitX=1;exitY=0;exitDx=0;exitDy=0;entryX=0;entryY=0.5;entryDx=0;entryDy=0;" edge="1" parent="1" source="U-_mnzm5YLeT8sS-xoxI-3" target="U-_mnzm5YLeT8sS-xoxI-62">
          <mxGeometry width="50" height="50" relative="1" as="geometry">
            <mxPoint x="490" y="570" as="sourcePoint" />
            <mxPoint x="670" y="450" as="targetPoint" />
          </mxGeometry>
        </mxCell>
        <mxCell id="U-_mnzm5YLeT8sS-xoxI-65" value="&lt;h1&gt;(1,N)&lt;/h1&gt;" style="text;html=1;align=center;verticalAlign=middle;resizable=0;points=[];autosize=1;strokeColor=none;fillColor=none;" vertex="1" parent="1">
          <mxGeometry x="70" y="365" width="80" height="70" as="geometry" />
        </mxCell>
        <mxCell id="U-_mnzm5YLeT8sS-xoxI-66" value="&lt;h1&gt;(1,N)&lt;/h1&gt;" style="text;html=1;align=center;verticalAlign=middle;resizable=0;points=[];autosize=1;strokeColor=none;fillColor=none;" vertex="1" parent="1">
          <mxGeometry x="65" y="525" width="80" height="70" as="geometry" />
        </mxCell>
        <mxCell id="U-_mnzm5YLeT8sS-xoxI-67" value="&lt;h1&gt;(1,1)&lt;/h1&gt;" style="text;html=1;align=center;verticalAlign=middle;resizable=0;points=[];autosize=1;strokeColor=none;fillColor=none;" vertex="1" parent="1">
          <mxGeometry x="320" y="720" width="70" height="70" as="geometry" />
        </mxCell>
        <mxCell id="U-_mnzm5YLeT8sS-xoxI-68" value="&lt;h1&gt;(1,N)&lt;/h1&gt;" style="text;html=1;align=center;verticalAlign=middle;resizable=0;points=[];autosize=1;strokeColor=none;fillColor=none;" vertex="1" parent="1">
          <mxGeometry x="310" y="310" width="80" height="70" as="geometry" />
        </mxCell>
        <mxCell id="U-_mnzm5YLeT8sS-xoxI-69" value="&lt;h1&gt;(1,1)&lt;/h1&gt;" style="text;html=1;align=center;verticalAlign=middle;resizable=0;points=[];autosize=1;strokeColor=none;fillColor=none;" vertex="1" parent="1">
          <mxGeometry x="505" y="310" width="70" height="70" as="geometry" />
        </mxCell>
        <mxCell id="U-_mnzm5YLeT8sS-xoxI-70" value="&lt;h1&gt;(1,N)&lt;/h1&gt;" style="text;html=1;align=center;verticalAlign=middle;resizable=0;points=[];autosize=1;strokeColor=none;fillColor=none;" vertex="1" parent="1">
          <mxGeometry x="400" y="260" width="80" height="70" as="geometry" />
        </mxCell>
        <mxCell id="U-_mnzm5YLeT8sS-xoxI-71" value="&lt;h1&gt;(1,N)&lt;/h1&gt;" style="text;html=1;align=center;verticalAlign=middle;resizable=0;points=[];autosize=1;strokeColor=none;fillColor=none;" vertex="1" parent="1">
          <mxGeometry x="620" y="460" width="80" height="70" as="geometry" />
        </mxCell>
        <mxCell id="U-_mnzm5YLeT8sS-xoxI-72" value="&lt;h1&gt;(1,N)&lt;/h1&gt;" style="text;html=1;align=center;verticalAlign=middle;resizable=0;points=[];autosize=1;strokeColor=none;fillColor=none;" vertex="1" parent="1">
          <mxGeometry x="250" y="580" width="80" height="70" as="geometry" />
        </mxCell>
        <mxCell id="U-_mnzm5YLeT8sS-xoxI-73" value="&lt;h1&gt;(1,N)&lt;/h1&gt;" style="text;html=1;align=center;verticalAlign=middle;resizable=0;points=[];autosize=1;strokeColor=none;fillColor=none;" vertex="1" parent="1">
          <mxGeometry x="400" y="455" width="80" height="70" as="geometry" />
        </mxCell>
      </root>
    </mxGraphModel>
  </diagram>
</mxfile>
